<svg version="1.1" id="Layer_1" xmlns="http://www.w3.org/2000/svg" xmlns:xlink="http://www.w3.org/1999/xlink" x="0px" y="0px"
	 width="100%" viewBox="0 0 2048 2048" enable-background="new 0 0 2048 2048" xml:space="preserve">
<path fill="#FFFFFF" opacity="1.000000" stroke="none" 
	d="
M1090.000000,2049.000000 
	C726.666687,2049.000000 363.833344,2049.000000 1.000000,2049.000000 
	C1.000000,1366.333374 1.000000,683.666687 1.000000,1.000000 
	C683.666687,1.000000 1366.333374,1.000000 2049.000000,1.000000 
	C2049.000000,683.666687 2049.000000,1366.333374 2049.000000,2049.000000 
	C1729.500000,2049.000000 1410.000000,2049.000000 1090.000000,2049.000000 
M1140.708984,1895.886841 
	C1147.369751,1895.914185 1154.030518,1895.965942 1160.691284,1895.965088 
	C1280.098389,1895.950317 1399.505615,1895.929199 1519.828857,1896.185181 
	C1520.655884,1896.257324 1521.483032,1896.392334 1522.310059,1896.392456 
	C1587.975586,1896.398193 1653.641235,1896.395142 1719.306763,1896.375122 
	C1720.418701,1896.374878 1721.530640,1896.158569 1723.133545,1895.992065 
	C1626.303101,1616.616333 1529.593750,1337.590332 1432.809448,1058.348267 
	C1531.577515,1053.706787 1615.090942,989.700256 1644.033325,895.482300 
	C1658.121094,849.621582 1657.988281,803.287048 1643.340088,757.647034 
	C1624.159180,697.883911 1585.818237,653.535461 1530.378662,623.210876 
	C1531.849609,622.376770 1532.816895,621.808533 1533.801880,621.272583 
	C1575.211426,598.738525 1607.357788,566.709045 1628.399902,524.662903 
	C1663.074097,455.377228 1664.432983,384.578003 1629.244995,315.556427 
	C1587.653198,233.973969 1518.982788,190.837311 1427.532471,188.750153 
	C1337.080688,186.685791 1246.545654,188.260437 1156.047119,188.252304 
	C1154.450806,188.252167 1152.854614,188.421585 1151.021118,188.525299 
	C1151.021118,192.238144 1151.020996,195.394577 1151.020996,198.551010 
	C1151.020996,455.714294 1151.021851,712.877563 1151.017700,970.040833 
	C1151.017578,978.373474 1150.967896,986.706116 1150.222534,995.056274 
	C1148.966187,993.849121 1147.730347,992.619751 1146.449341,991.439148 
	C1143.370117,988.601318 1140.269653,985.786438 1136.854736,982.301514 
	C1121.308594,937.656555 1105.705078,893.031494 1090.227295,848.362854 
	C1049.251709,730.108826 1008.355103,611.827454 967.380188,493.573212 
	C932.398926,392.616730 897.337524,291.687988 862.410645,190.712738 
	C861.416748,187.839371 860.159424,186.872208 857.156372,186.875977 
	C787.994385,186.962631 718.832275,186.974930 649.670288,186.893997 
	C646.666016,186.890488 645.377869,187.736679 644.395447,190.642349 
	C637.519287,210.979630 630.428772,231.244553 623.387817,251.526001 
	C600.407654,317.720001 577.381531,383.898132 554.443420,450.106750 
	C524.475708,536.605774 494.602203,623.137512 464.637726,709.637695 
	C437.344238,788.427307 409.984772,867.193970 382.651581,945.969788 
	C369.624146,983.515503 356.590027,1021.059021 343.538269,1058.663208 
	C341.359711,1058.802612 339.416504,1058.926880 337.432434,1059.053833 
	C337.432434,1338.163086 337.432434,1617.039795 337.432434,1896.403320 
	C341.901581,1896.403320 346.054199,1896.403198 350.206818,1896.403198 
	C408.536377,1896.403198 466.865936,1896.418213 525.195496,1896.387329 
	C534.188904,1896.382568 543.182129,1896.166870 553.075684,1896.203003 
	C615.781128,1896.203491 678.486572,1896.208130 741.192017,1896.193481 
	C744.511597,1896.192749 747.831177,1896.029785 752.057129,1896.103394 
	C756.219910,1896.203247 760.382629,1896.389893 764.545410,1896.390503 
	C887.656677,1896.406006 1010.768005,1896.406372 1133.879272,1896.374268 
	C1135.840698,1896.373779 1137.802246,1895.940186 1140.708984,1895.886841 
z"/>
<path fill="#010101" opacity="1.000000" stroke="none" 
	d="
M552.175476,1896.048584 
	C543.182129,1896.166870 534.188904,1896.382568 525.195496,1896.387329 
	C466.865936,1896.418213 408.536377,1896.403198 350.206818,1896.403198 
	C346.054199,1896.403198 341.901581,1896.403320 337.432434,1896.403320 
	C337.432434,1617.039795 337.432434,1338.163086 337.432434,1059.053833 
	C339.416504,1058.926880 341.359711,1058.802612 343.538269,1058.663208 
	C356.590027,1021.059021 369.624146,983.515503 382.651581,945.969788 
	C409.984772,867.193970 437.344238,788.427307 464.637726,709.637695 
	C494.602203,623.137512 524.475708,536.605774 554.443420,450.106750 
	C577.381531,383.898132 600.407654,317.720001 623.387817,251.526001 
	C630.428772,231.244553 637.519287,210.979630 644.395447,190.642349 
	C645.377869,187.736679 646.666016,186.890488 649.670288,186.893997 
	C718.832275,186.974930 787.994385,186.962631 857.156372,186.875977 
	C860.159424,186.872208 861.416748,187.839371 862.410645,190.712738 
	C897.337524,291.687988 932.398926,392.616730 967.380188,493.573212 
	C1008.355103,611.827454 1049.251709,730.108826 1090.227295,848.362854 
	C1105.705078,893.031494 1121.308594,937.656555 1136.976807,983.009216 
	C1141.439209,996.168518 1145.779541,1008.620117 1150.119751,1021.071716 
	C1150.393677,1020.992920 1150.667480,1020.914062 1150.941284,1020.835205 
	C1150.941284,1012.236389 1150.941284,1003.637573 1150.941284,995.038757 
	C1150.967896,986.706116 1151.017578,978.373474 1151.017700,970.040833 
	C1151.021851,712.877563 1151.020996,455.714294 1151.020996,198.551010 
	C1151.020996,195.394577 1151.021118,192.238144 1151.021118,188.525299 
	C1152.854614,188.421585 1154.450806,188.252167 1156.047119,188.252304 
	C1246.545654,188.260437 1337.080688,186.685791 1427.532471,188.750153 
	C1518.982788,190.837311 1587.653198,233.973969 1629.244995,315.556427 
	C1664.432983,384.578003 1663.074097,455.377228 1628.399902,524.662903 
	C1607.357788,566.709045 1575.211426,598.738525 1533.801880,621.272583 
	C1532.816895,621.808533 1531.849609,622.376770 1530.378662,623.210876 
	C1585.818237,653.535461 1624.159180,697.883911 1643.340088,757.647034 
	C1657.988281,803.287048 1658.121094,849.621582 1644.033325,895.482300 
	C1615.090942,989.700256 1531.577515,1053.706787 1432.809448,1058.348267 
	C1529.593750,1337.590332 1626.303101,1616.616333 1723.133545,1895.992065 
	C1721.530640,1896.158569 1720.418701,1896.374878 1719.306763,1896.375122 
	C1653.641235,1896.395142 1587.975586,1896.398193 1522.310059,1896.392456 
	C1521.483032,1896.392334 1520.655884,1896.257324 1519.324463,1895.689697 
	C1515.616455,1885.919556 1512.422119,1876.641479 1509.207397,1867.370483 
	C1496.887573,1831.839844 1484.563110,1796.310791 1472.236694,1760.782471 
	C1451.121948,1699.924194 1429.959961,1639.082275 1408.986084,1578.175415 
	C1407.549072,1574.002930 1405.663696,1572.666626 1401.243530,1572.684204 
	C1356.428101,1572.862915 1311.611694,1572.777588 1266.795532,1572.815430 
	C1261.828003,1572.819580 1255.525513,1571.342773 1252.256958,1573.784668 
	C1248.773438,1576.387451 1247.994995,1582.773560 1246.316406,1587.605469 
	C1216.658691,1672.976685 1187.025879,1758.356445 1157.434937,1843.750854 
	C1151.445435,1861.035767 1145.649048,1878.387573 1139.763672,1895.708618 
	C1137.802246,1895.940186 1135.840698,1896.373779 1133.879272,1896.374268 
	C1010.768005,1896.406372 887.656677,1896.406006 764.545410,1896.390503 
	C760.382629,1896.389893 756.219910,1896.203247 751.610596,1895.556641 
	C751.174561,1886.680908 751.189087,1878.351929 751.194275,1870.022949 
	C751.199524,1861.693604 751.195435,1853.364258 751.195435,1845.034912 
	C751.195435,1836.705566 751.195435,1828.376343 751.195435,1820.046997 
	C751.195435,1811.884277 751.305054,1803.719604 751.164795,1795.559204 
	C751.023438,1787.338867 750.419373,1779.122803 750.414551,1770.904663 
	C750.409973,1763.031738 751.030334,1755.160645 751.163757,1747.285156 
	C751.304871,1738.958130 751.195435,1730.626953 751.195435,1722.297607 
	C751.195435,1713.968262 751.195435,1705.638916 751.195435,1697.309570 
	C751.195435,1688.980225 751.195435,1680.651001 751.195435,1672.321655 
	C751.195435,1664.158936 751.195435,1655.996094 751.195435,1647.833374 
	C751.195435,1639.504028 751.194763,1631.174683 751.195618,1622.845337 
	C751.196472,1614.515991 751.199585,1606.186646 751.200439,1597.857300 
	C751.201355,1589.614136 751.200684,1581.371094 751.200684,1572.811035 
	C748.830688,1572.811035 747.349487,1572.810913 745.868225,1572.810913 
	C683.398193,1572.810059 620.927917,1572.882446 558.458557,1572.677490 
	C553.129822,1572.660034 552.195129,1574.380127 552.201050,1579.220093 
	C552.326050,1681.837402 552.293701,1784.454834 552.285461,1887.072266 
	C552.285217,1890.064331 552.213745,1893.056519 552.175476,1896.048584 
M1284.138062,1058.028931 
	C1264.726807,1058.085571 1245.315674,1058.142090 1224.991821,1058.035278 
	C1202.258789,1058.007202 1179.525879,1057.996094 1156.792969,1057.924927 
	C1154.498535,1057.917725 1152.205322,1057.546997 1149.005371,1057.148438 
	C1098.188232,1057.131714 1047.371094,1057.105713 996.553955,1057.106323 
	C987.059753,1057.106445 977.565613,1057.213135 967.160889,1057.002686 
	C962.187805,1057.067993 957.214722,1057.133301 951.507629,1056.979126 
	C950.812012,1055.504761 949.974121,1054.079834 949.441345,1052.548828 
	C933.582520,1006.975464 917.746582,961.394043 901.922363,915.808655 
	C879.764038,851.976562 857.601196,788.145996 835.518982,724.287598 
	C834.473816,721.265137 832.911682,720.233154 829.726135,720.238525 
	C778.754822,720.324829 727.783142,720.323181 676.811829,720.228760 
	C673.616394,720.222839 672.165833,721.232971 671.143677,724.297241 
	C665.457031,741.344604 659.504150,758.303040 653.703064,775.312561 
	C649.359802,788.047668 645.108337,800.814209 640.362305,813.963684 
	C640.180542,814.915710 639.998779,815.867737 639.178589,817.316223 
	C638.831360,818.590637 638.484131,819.865112 637.841553,821.468628 
	C637.841553,821.468628 637.897217,821.907410 637.710083,822.114929 
	C637.710083,822.114929 637.831726,822.366577 637.366150,822.694763 
	C637.226379,823.396240 637.086670,824.097717 636.317871,825.317200 
	C635.821045,827.116211 635.324158,828.915283 634.364380,831.126892 
	C634.265930,831.727600 634.167419,832.328308 633.516357,833.267578 
	C633.415527,833.889465 633.314758,834.511292 632.905334,835.488525 
	C632.905334,835.488525 632.933350,835.958313 632.770142,836.153259 
	C632.770142,836.153259 632.905151,836.368713 632.323792,836.829468 
	C632.143494,837.536499 631.963196,838.243469 631.288330,839.286560 
	C631.197388,839.863525 631.106445,840.440430 630.487671,841.478943 
	C626.040894,854.646240 621.594116,867.813477 616.773132,881.392761 
	C616.805115,881.742737 616.837097,882.092712 616.323669,882.934998 
	C615.542725,885.571838 614.761841,888.208618 613.394836,891.355713 
	C613.203491,892.347900 613.012146,893.340088 612.278687,894.764343 
	C611.815186,896.454407 611.351685,898.144470 610.297485,900.401672 
	C599.193604,932.319397 588.084229,964.235291 576.987793,996.155579 
	C570.210022,1015.652771 563.319702,1035.112549 556.765564,1054.684692 
	C554.787231,1060.592285 552.510925,1066.817261 552.494934,1072.902466 
	C552.227539,1174.389282 552.328125,1275.876953 552.198303,1377.364380 
	C552.192200,1382.146606 553.520874,1383.497192 558.343811,1383.485107 
	C620.669067,1383.329102 682.994873,1383.388916 745.320496,1383.380371 
	C747.095825,1383.380127 748.871094,1383.227539 751.316284,1383.115112 
	C751.316284,1274.855347 751.316284,1167.000977 751.316284,1058.349976 
	C805.476196,1058.349976 858.943054,1058.349976 912.310913,1058.550659 
	C912.310913,1058.550659 912.621765,1058.588989 912.621765,1058.588989 
	C912.621765,1058.588989 912.636841,1058.342285 913.595032,1058.338379 
	C915.505859,1058.332153 917.416626,1058.326050 919.280029,1058.535767 
	C919.280029,1058.535767 919.597534,1058.556152 919.597534,1058.556152 
	C919.597534,1058.556152 919.617371,1058.310669 920.601929,1058.343384 
	C931.161926,1058.452881 941.721924,1058.562378 952.991455,1058.915161 
	C957.254150,1058.915161 961.516785,1058.915161 966.274048,1058.915161 
	C966.274048,1308.235718 966.274048,1556.752808 966.274048,1805.269897 
	C966.584534,1805.317139 966.895020,1805.364502 967.205566,1805.411865 
	C970.976196,1793.906006 974.746826,1782.400146 978.801331,1770.276611 
	C978.819946,1770.050781 978.838623,1769.824951 979.151184,1769.583740 
	C979.151184,1769.583740 979.272034,1769.317749 979.272034,1769.317749 
	C979.272034,1769.317749 979.062500,1769.113892 979.540771,1768.491211 
	C979.626099,1767.976929 979.711487,1767.462524 980.322998,1766.468262 
	C984.543274,1753.976440 988.763611,1741.484619 993.264343,1728.554810 
	C993.308289,1728.213867 993.352234,1727.872803 993.941650,1727.078369 
	C994.211487,1726.472778 994.527954,1725.883301 994.744507,1725.259277 
	C1014.539490,1668.218750 1034.353516,1611.184937 1054.091675,1554.124756 
	C1057.891235,1543.140747 1061.391113,1532.053223 1065.390503,1520.578003 
	C1065.527344,1520.035156 1065.664185,1519.492432 1066.335327,1518.479004 
	C1076.191406,1490.104980 1086.087402,1461.744751 1095.881226,1433.349243 
	C1099.120972,1423.956177 1102.097656,1414.472290 1105.369629,1404.805786 
	C1105.369629,1404.805786 1105.368652,1404.521240 1105.924438,1404.075684 
	C1112.667847,1384.760376 1119.470581,1365.465454 1126.131836,1346.121704 
	C1129.917480,1335.128052 1133.471069,1324.054443 1137.326538,1312.798706 
	C1137.326538,1312.798706 1137.370239,1312.507935 1137.889282,1312.023315 
	C1138.320190,1310.945435 1138.795166,1309.882690 1139.175537,1308.787231 
	C1150.342896,1276.619751 1161.542358,1244.463501 1172.638916,1212.271729 
	C1176.799072,1200.202393 1180.715942,1188.049194 1184.974731,1175.361938 
	C1185.135986,1174.766968 1185.297363,1174.171997 1185.992676,1173.109985 
	C1186.924683,1170.639526 1187.940552,1168.197021 1188.774902,1165.693970 
	C1192.954102,1153.155151 1197.085449,1140.600464 1201.386353,1127.791138 
	C1201.386353,1127.791138 1201.353271,1127.491333 1201.911621,1127.055786 
	C1203.732300,1122.065063 1205.602173,1117.091431 1207.364868,1112.080322 
	C1213.590942,1094.381104 1219.780151,1076.668823 1226.917114,1059.078979 
	C1246.282837,1059.041138 1265.648560,1059.003296 1285.943970,1059.082397 
	C1334.829712,1059.082397 1383.715454,1059.082397 1432.601196,1059.082397 
	C1432.602905,1058.722290 1432.604614,1058.362183 1432.606445,1058.002075 
	C1431.032715,1058.002075 1429.459106,1058.001953 1427.885376,1058.001953 
	C1410.574219,1058.001831 1393.262939,1057.980957 1375.951782,1058.006348 
	C1345.659546,1058.050781 1315.367310,1058.123413 1284.138062,1058.028931 
M1316.107910,354.500000 
	C1316.107788,406.651489 1316.187012,458.803253 1315.984863,510.953949 
	C1315.964722,516.165771 1317.498169,517.340088 1322.468384,517.209290 
	C1359.061279,516.246582 1394.750610,510.544220 1428.813843,496.776031 
	C1454.932129,486.219147 1478.454468,471.945404 1495.375610,448.455475 
	C1511.423340,426.178131 1511.526123,395.458679 1495.680054,373.120850 
	C1483.204590,355.534729 1466.754395,342.861664 1447.916504,333.122498 
	C1407.996460,312.483887 1364.979126,305.036072 1320.535522,303.878387 
	C1316.922119,303.784271 1316.030029,305.121429 1316.062012,308.513702 
	C1316.203125,323.507935 1316.113892,338.504364 1316.107910,354.500000 
M1392.463257,710.948975 
	C1367.471802,705.078064 1342.154785,702.212769 1316.472900,702.076050 
	C1316.472900,773.540710 1316.472900,844.363953 1316.472900,915.153809 
	C1317.376343,915.326538 1317.861450,915.507629 1318.343262,915.498901 
	C1352.337402,914.877075 1385.721313,910.386414 1417.917725,899.049683 
	C1445.562012,889.315796 1471.179932,876.101196 1490.301514,853.037048 
	C1503.994263,836.520935 1510.955688,817.810364 1506.190674,796.027771 
	C1501.559326,774.854980 1488.331665,759.539001 1471.828125,746.692627 
	C1448.529053,728.556763 1421.542725,718.380737 1392.463257,710.948975 
M818.969299,611.531250 
	C818.111877,609.020447 817.281433,606.500061 816.393066,604.000305 
	C799.071899,555.262024 781.750549,506.523743 764.408264,457.792969 
	C762.435669,452.250092 760.338318,446.751617 758.298828,441.232544 
	C757.858948,441.219330 757.419128,441.206085 756.979309,441.192871 
	C735.793457,501.080078 714.607605,560.967285 693.043945,621.922546 
	C696.389648,621.922546 698.331360,621.922546 700.273071,621.922546 
	C737.596375,621.923096 774.919617,621.933655 812.242920,621.917725 
	C822.921692,621.913147 823.132141,623.240662 818.969299,611.531250 
M1340.045532,1266.433716 
	C1337.735718,1260.061646 1335.426025,1253.689575 1333.116211,1247.317505 
	C1332.598267,1247.292480 1332.080200,1247.267456 1331.562134,1247.242432 
	C1310.474487,1307.144775 1289.386841,1367.046997 1268.062012,1427.622925 
	C1311.637695,1427.622925 1354.042236,1427.622925 1396.867310,1427.622925 
	C1396.089844,1425.172241 1395.547607,1423.272461 1394.888306,1421.414062 
	C1386.272949,1397.121582 1377.624268,1372.840942 1369.017944,1348.545166 
	C1359.413452,1321.431763 1349.843628,1294.305908 1340.045532,1266.433716 
z"/>
<path fill="#E192FE" opacity="1.000000" stroke="none" 
	d="
M1140.236328,1895.797729 
	C1145.649048,1878.387573 1151.445435,1861.035767 1157.434937,1843.750854 
	C1187.025879,1758.356445 1216.658691,1672.976685 1246.316406,1587.605469 
	C1247.994995,1582.773560 1248.773438,1576.387451 1252.256958,1573.784668 
	C1255.525513,1571.342773 1261.828003,1572.819580 1266.795532,1572.815430 
	C1311.611694,1572.777588 1356.428101,1572.862915 1401.243530,1572.684204 
	C1405.663696,1572.666626 1407.549072,1574.002930 1408.986084,1578.175415 
	C1429.959961,1639.082275 1451.121948,1699.924194 1472.236694,1760.782471 
	C1484.563110,1796.310791 1496.887573,1831.839844 1509.207397,1867.370483 
	C1512.422119,1876.641479 1515.616455,1885.919556 1518.866455,1895.552002 
	C1399.505615,1895.929199 1280.098389,1895.950317 1160.691284,1895.965088 
	C1154.030518,1895.965942 1147.369751,1895.914185 1140.236328,1895.797729 
z"/>
<path fill="#EE729E" opacity="1.000000" stroke="none" 
	d="
M552.625610,1896.125732 
	C552.213745,1893.056519 552.285217,1890.064331 552.285461,1887.072266 
	C552.293701,1784.454834 552.326050,1681.837402 552.201050,1579.220093 
	C552.195129,1574.380127 553.129822,1572.660034 558.458557,1572.677490 
	C620.927917,1572.882446 683.398193,1572.810059 745.868225,1572.810913 
	C747.349487,1572.810913 748.830688,1572.811035 751.200684,1572.811035 
	C751.200684,1581.371094 751.201355,1589.614136 751.200439,1597.857300 
	C751.199585,1606.186646 751.196472,1614.515991 751.195618,1622.845337 
	C751.194763,1631.174683 751.195435,1639.504028 751.195435,1647.833374 
	C751.195435,1655.996094 751.195435,1664.158936 751.195435,1672.321655 
	C751.195435,1680.651001 751.195435,1688.980225 751.195435,1697.309570 
	C751.195435,1705.638916 751.195435,1713.968262 751.195435,1722.297607 
	C751.195435,1730.626953 751.304871,1738.958130 751.163757,1747.285156 
	C751.030334,1755.160645 750.409973,1763.031738 750.414551,1770.904663 
	C750.419373,1779.122803 751.023438,1787.338867 751.164795,1795.559204 
	C751.305054,1803.719604 751.195435,1811.884277 751.195435,1820.046997 
	C751.195435,1828.376343 751.195435,1836.705566 751.195435,1845.034912 
	C751.195435,1853.364258 751.199524,1861.693604 751.194275,1870.022949 
	C751.189087,1878.351929 751.174561,1886.680908 751.157471,1895.476074 
	C747.831177,1896.029785 744.511597,1896.192749 741.192017,1896.193481 
	C678.486572,1896.208130 615.781128,1896.203491 552.625610,1896.125732 
z"/>
<path fill="#94BF6B" opacity="1.000000" stroke="none" 
	d="
M1150.581909,995.047485 
	C1150.941284,1003.637573 1150.941284,1012.236389 1150.941284,1020.835205 
	C1150.667480,1020.914062 1150.393677,1020.992920 1150.119751,1021.071716 
	C1145.779541,1008.620117 1141.439209,996.168518 1137.138428,983.339600 
	C1140.269653,985.786438 1143.370117,988.601318 1146.449341,991.439148 
	C1147.730347,992.619751 1148.966187,993.849121 1150.581909,995.047485 
z"/>
<path fill="#74A7FE" opacity="1.000000" stroke="none" 
	d="
M616.869019,882.442688 
	C616.837097,882.092712 616.805115,881.742737 617.298279,881.116821 
	C624.625183,868.362854 629.802429,855.346741 631.015442,841.017395 
	C631.106445,840.440430 631.197388,839.863525 631.845581,838.909546 
	C632.570251,837.811279 632.737732,837.089966 632.905151,836.368713 
	C632.905151,836.368713 632.770142,836.153259 632.995972,835.995667 
	C633.221802,835.838074 633.449219,835.500977 633.449219,835.500977 
	C633.449219,835.500977 633.213928,835.133179 633.213989,835.133179 
	C633.314758,834.511292 633.415527,833.889465 634.013855,832.885986 
	C634.616638,831.907715 634.721985,831.310974 634.827332,830.714294 
	C635.324158,828.915283 635.821045,827.116211 636.866821,824.920044 
	C637.554443,823.804077 637.693054,823.085327 637.831726,822.366577 
	C637.831726,822.366577 637.710083,822.114929 637.954834,821.965820 
	C638.199646,821.816711 638.416443,821.480957 638.416443,821.480957 
	C638.416443,821.480957 638.136902,821.139526 638.136902,821.139526 
	C638.484131,819.865112 638.831360,818.590637 639.776001,816.947144 
	C640.520996,815.574219 640.668457,814.570496 640.815979,813.566711 
	C645.108337,800.814209 649.359802,788.047668 653.703064,775.312561 
	C659.504150,758.303040 665.457031,741.344604 671.143677,724.297241 
	C672.165833,721.232971 673.616394,720.222839 676.811829,720.228760 
	C727.783142,720.323181 778.754822,720.324829 829.726135,720.238525 
	C832.911682,720.233154 834.473816,721.265137 835.518982,724.287598 
	C857.601196,788.145996 879.764038,851.976562 901.922363,915.808655 
	C917.746582,961.394043 933.582520,1006.975464 949.441345,1052.548828 
	C949.974121,1054.079834 950.812012,1055.504761 951.798157,1057.459717 
	C952.153076,1058.184082 952.217529,1058.427979 952.281921,1058.671753 
	C941.721924,1058.562378 931.161926,1058.452881 920.038330,1058.251221 
	C919.474792,1058.159180 919.327454,1058.319702 919.327454,1058.319824 
	C917.416626,1058.326050 915.505859,1058.332153 913.059814,1058.265625 
	C912.524597,1058.192871 912.409912,1058.349976 912.409912,1058.349976 
	C858.943054,1058.349976 805.476196,1058.349976 751.316284,1058.349976 
	C751.316284,1167.000977 751.316284,1274.855347 751.316284,1383.115112 
	C748.871094,1383.227539 747.095825,1383.380127 745.320496,1383.380371 
	C682.994873,1383.388916 620.669067,1383.329102 558.343811,1383.485107 
	C553.520874,1383.497192 552.192200,1382.146606 552.198303,1377.364380 
	C552.328125,1275.876953 552.227539,1174.389282 552.494934,1072.902466 
	C552.510925,1066.817261 554.787231,1060.592285 556.765564,1054.684692 
	C563.319702,1035.112549 570.210022,1015.652771 576.987793,996.155579 
	C588.084229,964.235291 599.193604,932.319397 610.854370,899.967468 
	C611.881042,897.799622 612.350891,896.065918 612.820801,894.332275 
	C613.012146,893.340088 613.203491,892.347900 613.933228,890.945435 
	C615.270752,887.837708 616.069885,885.140198 616.869019,882.442688 
z"/>
<path fill="#97D35F" opacity="1.000000" stroke="none" 
	d="
M1201.353271,1127.491333 
	C1201.353271,1127.491333 1201.386353,1127.791138 1200.997070,1128.092407 
	C1199.743164,1130.130005 1198.700684,1131.801880 1198.044067,1133.613647 
	C1194.815796,1142.519653 1191.541992,1151.414551 1188.592773,1160.414307 
	C1187.192993,1164.685547 1186.481689,1169.182373 1185.458618,1173.577026 
	C1185.297363,1174.171997 1185.135986,1174.766968 1184.514771,1175.716797 
	C1183.221802,1177.430176 1182.115234,1178.692383 1181.598022,1180.162109 
	C1176.300903,1195.217773 1171.034790,1210.285156 1165.892700,1225.394409 
	C1162.167847,1236.340088 1158.736084,1247.385742 1154.990723,1258.324097 
	C1153.005737,1264.120728 1150.491455,1269.735107 1148.462036,1275.518066 
	C1144.882690,1285.717529 1141.422974,1295.960938 1138.081665,1306.240723 
	C1137.444824,1308.199829 1137.587280,1310.412354 1137.370239,1312.507935 
	C1137.370239,1312.507935 1137.326538,1312.798706 1136.929199,1313.096680 
	C1133.098022,1322.312134 1129.600952,1331.206055 1126.250000,1340.154785 
	C1123.534058,1347.407837 1120.934570,1354.706055 1118.391724,1362.021851 
	C1115.613403,1370.014404 1112.806274,1378.002686 1110.302002,1386.082886 
	C1108.419922,1392.155396 1106.996338,1398.369873 1105.368652,1404.521240 
	C1105.368652,1404.521240 1105.369629,1404.805786 1104.973022,1405.091797 
	C1102.026489,1412.351318 1099.484619,1419.327515 1096.924683,1426.297241 
	C1093.107056,1436.690918 1089.173706,1447.043579 1085.486328,1457.483154 
	C1082.909912,1464.777710 1080.785400,1472.231079 1078.240112,1479.537354 
	C1074.031006,1491.620239 1069.613770,1503.630737 1065.396851,1515.710938 
	C1065.075562,1516.631226 1065.645508,1517.862793 1065.801147,1518.949585 
	C1065.664185,1519.492432 1065.527344,1520.035156 1064.854248,1520.863525 
	C1063.781738,1521.745361 1062.987793,1522.253052 1062.748291,1522.951172 
	C1059.241943,1533.170654 1055.806641,1543.414551 1052.360718,1553.654663 
	C1049.945190,1560.833008 1047.632690,1568.047729 1045.106201,1575.186768 
	C1041.659912,1584.925049 1037.904907,1594.555542 1034.551025,1604.324585 
	C1029.468750,1619.127808 1024.748291,1634.055542 1019.628357,1648.845337 
	C1015.316528,1661.301147 1010.536987,1673.594482 1006.181152,1686.035522 
	C1001.973999,1698.052246 998.003601,1710.152832 994.039368,1722.252563 
	C993.497986,1723.905151 993.594849,1725.766968 993.396118,1727.531860 
	C993.352234,1727.872803 993.308289,1728.213867 992.809570,1728.939209 
	C991.602722,1730.550171 990.614014,1731.691895 990.138611,1733.017578 
	C987.770325,1739.622803 985.386292,1746.229736 983.308289,1752.929321 
	C981.883301,1757.523315 980.949951,1762.269897 979.796875,1766.948242 
	C979.711487,1767.462524 979.626099,1767.976929 979.232300,1768.864624 
	C978.923767,1769.238037 978.857239,1769.599121 978.857239,1769.599121 
	C978.838623,1769.824951 978.819946,1770.050781 978.352539,1770.702515 
	C975.023438,1778.304077 972.143066,1785.479736 969.262695,1792.655273 
	C968.807617,1792.604370 968.352600,1792.553467 967.897522,1792.502563 
	C967.897522,1790.283813 967.897583,1788.065063 967.897583,1785.846313 
	C967.897766,1547.292603 967.897156,1308.738770 967.905396,1070.185059 
	C967.905579,1065.880127 968.013611,1061.575317 968.071411,1057.270508 
	C977.565613,1057.213135 987.059753,1057.106445 996.553955,1057.106323 
	C1047.371094,1057.105713 1098.188232,1057.131714 1149.575195,1057.588989 
	C1152.456909,1058.650391 1154.764893,1059.793579 1157.081177,1059.810059 
	C1177.204468,1059.953735 1197.329346,1059.877441 1217.453735,1059.909424 
	C1222.364502,1059.917236 1222.963745,1060.942139 1221.334839,1065.569702 
	C1218.604614,1073.325684 1215.973877,1081.116943 1213.289673,1088.889282 
	C1211.416748,1094.312622 1209.357544,1099.678467 1207.681763,1105.161743 
	C1205.421143,1112.558838 1203.449219,1120.043945 1201.353271,1127.491333 
z"/>
<path fill="#EB2C7E" opacity="1.000000" stroke="none" 
	d="
M1316.107910,354.000000 
	C1316.113892,338.504364 1316.203125,323.507935 1316.062012,308.513702 
	C1316.030029,305.121429 1316.922119,303.784271 1320.535522,303.878387 
	C1364.979126,305.036072 1407.996460,312.483887 1447.916504,333.122498 
	C1466.754395,342.861664 1483.204590,355.534729 1495.680054,373.120850 
	C1511.526123,395.458679 1511.423340,426.178131 1495.375610,448.455475 
	C1478.454468,471.945404 1454.932129,486.219147 1428.813843,496.776031 
	C1394.750610,510.544220 1359.061279,516.246582 1322.468384,517.209290 
	C1317.498169,517.340088 1315.964722,516.165771 1315.984863,510.953949 
	C1316.187012,458.803253 1316.107788,406.651489 1316.107910,354.000000 
z"/>
<path fill="#F58E58" opacity="1.000000" stroke="none" 
	d="
M1392.867432,711.040527 
	C1421.542725,718.380737 1448.529053,728.556763 1471.828125,746.692627 
	C1488.331665,759.539001 1501.559326,774.854980 1506.190674,796.027771 
	C1510.955688,817.810364 1503.994263,836.520935 1490.301514,853.037048 
	C1471.179932,876.101196 1445.562012,889.315796 1417.917725,899.049683 
	C1385.721313,910.386414 1352.337402,914.877075 1318.343262,915.498901 
	C1317.861450,915.507629 1317.376343,915.326538 1316.472900,915.153809 
	C1316.472900,844.363953 1316.472900,773.540710 1316.472900,702.076050 
	C1342.154785,702.212769 1367.471802,705.078064 1392.867432,711.040527 
z"/>
<path fill="#1C4295" opacity="1.000000" stroke="none" 
	d="
M819.081848,611.906494 
	C823.132141,623.240662 822.921692,621.913147 812.242920,621.917725 
	C774.919617,621.933655 737.596375,621.923096 700.273071,621.922546 
	C698.331360,621.922546 696.389648,621.922546 693.043945,621.922546 
	C714.607605,560.967285 735.793457,501.080078 756.979309,441.192871 
	C757.419128,441.206085 757.858948,441.219330 758.298828,441.232544 
	C760.338318,446.751617 762.435669,452.250092 764.408264,457.792969 
	C781.750549,506.523743 799.071899,555.262024 816.393066,604.000305 
	C817.281433,606.500061 818.111877,609.020447 819.081848,611.906494 
z"/>
<path fill="#72368A" opacity="1.000000" stroke="none" 
	d="
M1340.152100,1266.809570 
	C1349.843628,1294.305908 1359.413452,1321.431763 1369.017944,1348.545166 
	C1377.624268,1372.840942 1386.272949,1397.121582 1394.888306,1421.414062 
	C1395.547607,1423.272461 1396.089844,1425.172241 1396.867310,1427.622925 
	C1354.042236,1427.622925 1311.637695,1427.622925 1268.062012,1427.622925 
	C1289.386841,1367.046997 1310.474487,1307.144775 1331.562134,1247.242432 
	C1332.080200,1247.267456 1332.598267,1247.292480 1333.116211,1247.317505 
	C1335.426025,1253.689575 1337.735718,1260.061646 1340.152100,1266.809570 
z"/>
<path fill="#789C56" opacity="1.000000" stroke="none" 
	d="
M967.616089,1057.136475 
	C968.013611,1061.575317 967.905579,1065.880127 967.905396,1070.185059 
	C967.897156,1308.738770 967.897766,1547.292603 967.897583,1785.846313 
	C967.897583,1788.065063 967.897522,1790.283813 967.897522,1792.502563 
	C968.352600,1792.553467 968.807617,1792.604370 969.262695,1792.655273 
	C972.143066,1785.479736 975.023438,1778.304077 978.210632,1771.011353 
	C974.746826,1782.400146 970.976196,1793.906006 967.205566,1805.411865 
	C966.895020,1805.364502 966.584534,1805.317139 966.274048,1805.269897 
	C966.274048,1556.752808 966.274048,1308.235718 966.274048,1058.915161 
	C961.516785,1058.915161 957.254150,1058.915161 952.636719,1058.793457 
	C952.217529,1058.427979 952.153076,1058.184082 952.165161,1057.569580 
	C957.214722,1057.133301 962.187805,1057.067993 967.616089,1057.136475 
z"/>
<path fill="#789C56" opacity="1.000000" stroke="none" 
	d="
M993.668945,1727.305176 
	C993.594849,1725.766968 993.497986,1723.905151 994.039368,1722.252563 
	C998.003601,1710.152832 1001.973999,1698.052246 1006.181152,1686.035522 
	C1010.536987,1673.594482 1015.316528,1661.301147 1019.628357,1648.845337 
	C1024.748291,1634.055542 1029.468750,1619.127808 1034.551025,1604.324585 
	C1037.904907,1594.555542 1041.659912,1584.925049 1045.106201,1575.186768 
	C1047.632690,1568.047729 1049.945190,1560.833008 1052.360718,1553.654663 
	C1055.806641,1543.414551 1059.241943,1533.170654 1062.748291,1522.951172 
	C1062.987793,1522.253052 1063.781738,1521.745361 1064.673584,1521.081299 
	C1061.391113,1532.053223 1057.891235,1543.140747 1054.091675,1554.124756 
	C1034.353516,1611.184937 1014.539490,1668.218750 994.744507,1725.259277 
	C994.527954,1725.883301 994.211487,1726.472778 993.668945,1727.305176 
z"/>
<path fill="#789C56" opacity="1.000000" stroke="none" 
	d="
M1201.632446,1127.273560 
	C1203.449219,1120.043945 1205.421143,1112.558838 1207.681763,1105.161743 
	C1209.357544,1099.678467 1211.416748,1094.312622 1213.289673,1088.889282 
	C1215.973877,1081.116943 1218.604614,1073.325684 1221.334839,1065.569702 
	C1222.963745,1060.942139 1222.364502,1059.917236 1217.453735,1059.909424 
	C1197.329346,1059.877441 1177.204468,1059.953735 1157.081177,1059.810059 
	C1154.764893,1059.793579 1152.456909,1058.650391 1150.028320,1057.687256 
	C1152.205322,1057.546997 1154.498535,1057.917725 1156.792969,1057.924927 
	C1179.525879,1057.996094 1202.258789,1058.007202 1225.457397,1058.308716 
	C1225.922974,1058.582153 1225.983276,1058.961548 1225.983276,1058.961548 
	C1219.780151,1076.668823 1213.590942,1094.381104 1207.364868,1112.080322 
	C1205.602173,1117.091431 1203.732300,1122.065063 1201.632446,1127.273560 
z"/>
<path fill="#789C56" opacity="1.000000" stroke="none" 
	d="
M1137.629761,1312.265625 
	C1137.587280,1310.412354 1137.444824,1308.199829 1138.081665,1306.240723 
	C1141.422974,1295.960938 1144.882690,1285.717529 1148.462036,1275.518066 
	C1150.491455,1269.735107 1153.005737,1264.120728 1154.990723,1258.324097 
	C1158.736084,1247.385742 1162.167847,1236.340088 1165.892700,1225.394409 
	C1171.034790,1210.285156 1176.300903,1195.217773 1181.598022,1180.162109 
	C1182.115234,1178.692383 1183.221802,1177.430176 1184.399170,1176.002930 
	C1180.715942,1188.049194 1176.799072,1200.202393 1172.638916,1212.271729 
	C1161.542358,1244.463501 1150.342896,1276.619751 1139.175537,1308.787231 
	C1138.795166,1309.882690 1138.320190,1310.945435 1137.629761,1312.265625 
z"/>
<path fill="#789C56" opacity="1.000000" stroke="none" 
	d="
M1066.068237,1518.714355 
	C1065.645508,1517.862793 1065.075562,1516.631226 1065.396851,1515.710938 
	C1069.613770,1503.630737 1074.031006,1491.620239 1078.240112,1479.537354 
	C1080.785400,1472.231079 1082.909912,1464.777710 1085.486328,1457.483154 
	C1089.173706,1447.043579 1093.107056,1436.690918 1096.924683,1426.297241 
	C1099.484619,1419.327515 1102.026489,1412.351318 1104.885498,1405.203979 
	C1102.097656,1414.472290 1099.120972,1423.956177 1095.881226,1433.349243 
	C1086.087402,1461.744751 1076.191406,1490.104980 1066.068237,1518.714355 
z"/>
<path fill="#789C56" opacity="1.000000" stroke="none" 
	d="
M1105.646484,1404.298462 
	C1106.996338,1398.369873 1108.419922,1392.155396 1110.302002,1386.082886 
	C1112.806274,1378.002686 1115.613403,1370.014404 1118.391724,1362.021851 
	C1120.934570,1354.706055 1123.534058,1347.407837 1126.250000,1340.154785 
	C1129.600952,1331.206055 1133.098022,1322.312134 1136.830566,1313.205566 
	C1133.471069,1324.054443 1129.917480,1335.128052 1126.131836,1346.121704 
	C1119.470581,1365.465454 1112.667847,1384.760376 1105.646484,1404.298462 
z"/>
<path fill="#7E7E7E" opacity="1.000000" stroke="none" 
	d="
M1285.075073,1058.184326 
	C1315.367310,1058.123413 1345.659546,1058.050781 1375.951782,1058.006348 
	C1393.262939,1057.980957 1410.574219,1058.001831 1427.885376,1058.001953 
	C1429.459106,1058.001953 1431.032715,1058.002075 1432.606445,1058.002075 
	C1432.604614,1058.362183 1432.602905,1058.722290 1432.601196,1059.082397 
	C1383.715454,1059.082397 1334.829712,1059.082397 1285.499634,1058.829102 
	C1285.055298,1058.575928 1285.075073,1058.184326 1285.075073,1058.184326 
z"/>
<path fill="#B3C5E4" opacity="1.000000" stroke="none" 
	d="
M630.751587,841.248169 
	C629.802429,855.346741 624.625183,868.362854 617.485352,880.910767 
	C621.594116,867.813477 626.040894,854.646240 630.751587,841.248169 
z"/>
<path fill="#789C56" opacity="1.000000" stroke="none" 
	d="
M1185.725586,1173.343506 
	C1186.481689,1169.182373 1187.192993,1164.685547 1188.592773,1160.414307 
	C1191.541992,1151.414551 1194.815796,1142.519653 1198.044067,1133.613647 
	C1198.700684,1131.801880 1199.743164,1130.130005 1200.920654,1128.222534 
	C1197.085449,1140.600464 1192.954102,1153.155151 1188.774902,1165.693970 
	C1187.940552,1168.197021 1186.924683,1170.639526 1185.725586,1173.343506 
z"/>
<path fill="#789C56" opacity="1.000000" stroke="none" 
	d="
M980.059937,1766.708252 
	C980.949951,1762.269897 981.883301,1757.523315 983.308289,1752.929321 
	C985.386292,1746.229736 987.770325,1739.622803 990.138611,1733.017578 
	C990.614014,1731.691895 991.602722,1730.550171 992.669434,1729.158203 
	C988.763611,1741.484619 984.543274,1753.976440 980.059937,1766.708252 
z"/>
<path fill="#555D50" opacity="1.000000" stroke="none" 
	d="
M1284.606567,1058.106689 
	C1285.075073,1058.184326 1285.055298,1058.575928 1285.034790,1058.770752 
	C1265.648560,1059.003296 1246.282837,1059.041138 1226.450195,1059.020264 
	C1225.983276,1058.961548 1225.922974,1058.582153 1225.913696,1058.390381 
	C1245.315674,1058.142090 1264.726807,1058.085571 1284.606567,1058.106689 
z"/>
<path fill="#B3C5E4" opacity="1.000000" stroke="none" 
	d="
M616.596313,882.688843 
	C616.069885,885.140198 615.270752,887.837708 614.226318,890.690308 
	C614.761841,888.208618 615.542725,885.571838 616.596313,882.688843 
z"/>
<path fill="#B3C5E4" opacity="1.000000" stroke="none" 
	d="
M612.549683,894.548340 
	C612.350891,896.065918 611.881042,897.799622 611.149658,899.683960 
	C611.351685,898.144470 611.815186,896.454407 612.549683,894.548340 
z"/>
<path fill="#B3C5E4" opacity="1.000000" stroke="none" 
	d="
M640.589111,813.765198 
	C640.668457,814.570496 640.520996,815.574219 640.095215,816.698853 
	C639.998779,815.867737 640.180542,814.915710 640.589111,813.765198 
z"/>
<path fill="#B3C5E4" opacity="1.000000" stroke="none" 
	d="
M637.598938,822.530640 
	C637.693054,823.085327 637.554443,823.804077 637.181335,824.661011 
	C637.086670,824.097717 637.226379,823.396240 637.598938,822.530640 
z"/>
<path fill="#B3C5E4" opacity="1.000000" stroke="none" 
	d="
M634.595825,830.920593 
	C634.721985,831.310974 634.616638,831.907715 634.290161,832.716675 
	C634.167419,832.328308 634.265930,831.727600 634.595825,830.920593 
z"/>
<path fill="#B3C5E4" opacity="1.000000" stroke="none" 
	d="
M632.614502,836.599121 
	C632.737732,837.089966 632.570251,837.811279 632.092834,838.741516 
	C631.963196,838.243469 632.143494,837.536499 632.614502,836.599121 
z"/>
<path fill="#B3C5E4" opacity="1.000000" stroke="none" 
	d="
M633.059631,835.310852 
	C633.213928,835.133179 633.449219,835.500977 633.449219,835.500977 
	C633.449219,835.500977 633.221802,835.838074 633.077576,835.898193 
	C632.933350,835.958313 632.905334,835.488525 633.059631,835.310852 
z"/>
<path fill="#789C56" opacity="1.000000" stroke="none" 
	d="
M919.303711,1058.427734 
	C919.327454,1058.319702 919.474792,1058.159180 919.546082,1058.234863 
	C919.617371,1058.310669 919.597534,1058.556152 919.597534,1058.556152 
	C919.597534,1058.556152 919.280029,1058.535767 919.303711,1058.427734 
z"/>
<path fill="#789C56" opacity="1.000000" stroke="none" 
	d="
M912.360413,1058.450317 
	C912.409912,1058.349976 912.524597,1058.192871 912.580688,1058.267578 
	C912.636841,1058.342285 912.621765,1058.588989 912.621765,1058.588989 
	C912.621765,1058.588989 912.310913,1058.550659 912.360413,1058.450317 
z"/>
<path fill="#B3C5E4" opacity="1.000000" stroke="none" 
	d="
M637.989258,821.304077 
	C638.136902,821.139526 638.416443,821.480957 638.416443,821.480957 
	C638.416443,821.480957 638.199646,821.816711 638.048462,821.862061 
	C637.897217,821.907410 637.841553,821.468628 637.989258,821.304077 
z"/>
<path fill="#789C56" opacity="1.000000" stroke="none" 
	d="
M979.004211,1769.591431 
	C978.857239,1769.599121 978.923767,1769.238037 978.993164,1769.176025 
	C979.062500,1769.113892 979.272034,1769.317749 979.272034,1769.317749 
	C979.272034,1769.317749 979.151184,1769.583740 979.004211,1769.591431 
z"/>
</svg>